<svg xmlns="http://www.w3.org/2000/svg" width="20.569" height="32.193" viewBox="0 0 20.569 32.193"><defs><style>.a{fill:#b4b4b4;}</style></defs><g transform="translate(6.672 19.054)"><g transform="translate(0)"><path class="a" d="M192.2,283.386h-5.89a.672.672,0,1,0,0,1.345h5.89a.672.672,0,1,0,0-1.345Z" transform="translate(-185.642 -283.386)"/></g></g><g transform="translate(3.867 21.811)"><g transform="translate(0)"><path class="a" d="M156.112,324.386h-11.5a.672.672,0,1,0,0,1.345h11.5a.672.672,0,1,0,0-1.345Z" transform="translate(-143.942 -324.386)"/></g></g><g transform="translate(3.867 24.635)"><g transform="translate(0)"><path class="a" d="M156.112,366.386h-11.5a.672.672,0,1,0,0,1.345h11.5a.672.672,0,1,0,0-1.345Z" transform="translate(-143.942 -366.386)"/></g></g><g transform="translate(0 0)"><path class="a" d="M106.6.046a.657.657,0,0,0-.733.175l-1.432,1.567L103,.227a.67.67,0,0,0-.948-.04l-.04.04-1.432,1.56L99.147.221A.67.67,0,0,0,98.2.18l-.04.04-1.432,1.56L95.295.221a.67.67,0,0,0-.948-.04l-.04.04-1.432,1.56L91.442.221a.67.67,0,0,0-.948-.04l-.04.04-1.432,1.56L87.582.221a.654.654,0,0,0-1.143.45V31.52a.66.66,0,0,0,.645.672.647.647,0,0,0,.5-.215l1.432-1.567,1.432,1.56a.67.67,0,0,0,.948.04l.04-.04,1.432-1.56,1.432,1.56a.67.67,0,0,0,.948.04l.04-.04,1.432-1.56,1.432,1.56a.67.67,0,0,0,.948.04l.04-.04,1.432-1.56,1.432,1.56a.67.67,0,0,0,.948.04l.04-.04,1.432-1.56,1.432,1.56a.666.666,0,0,0,.5.215.536.536,0,0,0,.229-.047.656.656,0,0,0,.417-.625V.665A.639.639,0,0,0,106.6.046Zm-2.158,28.691a.673.673,0,0,0-.5.222l-1.432,1.567-1.432-1.56a.67.67,0,0,0-.948-.04l-.04.04-1.432,1.56-1.432-1.56a.67.67,0,0,0-.948-.04l-.04.04L94.8,30.525l-1.432-1.56a.67.67,0,0,0-.948-.04l-.04.04-1.439,1.56-1.432-1.567a.673.673,0,0,0-.5-.222.634.634,0,0,0-.484.222l-.746.834V2.4l.746.827a.634.634,0,0,0,.484.222.673.673,0,0,0,.5-.222L90.944,1.66l1.432,1.56a.67.67,0,0,0,.948.04l.04-.04L94.8,1.66l1.432,1.56a.67.67,0,0,0,.948.04l.04-.04L98.65,1.66l1.432,1.56a.67.67,0,0,0,.948.04l.04-.04L102.5,1.66l1.432,1.567a.673.673,0,0,0,.5.222.634.634,0,0,0,.484-.222l.753-.834V29.786l-.746-.827A.634.634,0,0,0,104.439,28.737Z" transform="translate(-86.439 0)"/></g><g transform="translate(8.092 5.963)"><g transform="translate(0)"><path class="a" d="M211.052,94.226a2.188,2.188,0,0,0-2.084-1.52.847.847,0,1,1,.84-.847v.007a.672.672,0,0,0,1.345,0,2.188,2.188,0,0,0-1.52-2.084v-.424a.672.672,0,0,0-1.345,0v.424a2.191,2.191,0,0,0,.672,4.276.847.847,0,0,1,.013,1.694c0-.007,0-.007-.007-.007a.848.848,0,0,1-.847-.847.672.672,0,0,0-1.345,0,2.194,2.194,0,0,0,1.52,2.084v.43a.672.672,0,0,0,1.345,0v-.43A2.192,2.192,0,0,0,211.052,94.226Z" transform="translate(-206.771 -88.686)"/></g></g></svg>