<svg xmlns="http://www.w3.org/2000/svg" xmlns:xlink="http://www.w3.org/1999/xlink" width="81.922" height="81.911" viewBox="0 0 81.922 81.911"><defs><style>.a{fill:none;clip-rule:evenodd;}.b{clip-path:url(#a);}</style><clipPath id="a"><path class="a" d="M38.4-2.807a2.614,2.614,0,0,1,1.81-.748,2.6,2.6,0,0,1,1.8.748A2.587,2.587,0,0,1,42.77-1,2.6,2.6,0,0,1,42.016.829a2.626,2.626,0,0,1-1.8.748A2.639,2.639,0,0,1,38.4.829,2.646,2.646,0,0,1,37.655-1,2.606,2.606,0,0,1,38.4-2.807ZM44.429,3.23A5.885,5.885,0,0,0,46.189-1a6.042,6.042,0,0,0-1.743-4.217,6.153,6.153,0,0,0-8.467,0V-5.2A6.012,6.012,0,0,0,34.236-1,5.863,5.863,0,0,0,36,3.23,5.944,5.944,0,0,0,40.212,4.99,6.014,6.014,0,0,0,44.429,3.23ZM18.554,14.63c0,.006,0,.006.006.006a1.707,1.707,0,0,1-.006,2.407,1.713,1.713,0,0,1-2.4,0,1.709,1.709,0,0,1,0-2.413A1.737,1.737,0,0,1,18.554,14.63ZM1.391,31.8a1.692,1.692,0,0,1,0-2.407l9.93-9.936a1.734,1.734,0,0,1,2.407,0v.006a1.7,1.7,0,0,1,0,2.4L5.01,30.586l1.4,1.4,4.01.441.838-.832-1.206-1.212a1.706,1.706,0,0,1,2.413-2.413l1.206,1.206,2.413-2.413L14.873,25.56a1.706,1.706,0,0,1,2.413-2.413l1.206,1.206L20.91,21.94H20.9a1.708,1.708,0,0,1,2.413-2.418l.006.006,2.413-2.413v-.006A1.706,1.706,0,1,1,28.149,14.7V14.7L29.8,13.049a1.742,1.742,0,0,1,2.016-.307,12.8,12.8,0,0,0,5.987,1.48,12.686,12.686,0,0,0,9.042-3.753A12.755,12.755,0,0,0,50.59,1.426a12.66,12.66,0,0,0-3.742-9.048,12.686,12.686,0,0,0-9.042-3.753,12.706,12.706,0,0,0-9.059,3.753A12.7,12.7,0,0,0,25,1.426,12.876,12.876,0,0,0,26.49,7.414a1.7,1.7,0,0,1-.307,1.994L23.4,12.194c0,.017,0,.017-.017.017a1.734,1.734,0,0,1-2.407,0,1.7,1.7,0,0,1,0-2.407L22.927,7.86a15.981,15.981,0,0,1-1.335-6.434,16.065,16.065,0,0,1,4.747-11.472,16.116,16.116,0,0,1,11.466-4.742,16.068,16.068,0,0,1,11.449,4.742A16.025,16.025,0,0,1,54,1.426a16.012,16.012,0,0,1-4.747,11.466A16.073,16.073,0,0,1,37.805,17.64a15.981,15.981,0,0,1-6.434-1.335L12.259,35.417a1.688,1.688,0,0,1-1.212.5h-.19L5.412,35.3a1.611,1.611,0,0,1-1.005-.48Zm-.5-22.7A1.7,1.7,0,0,1,2.6,7.4H4.306a1.706,1.706,0,1,1,0,3.412H2.6A1.7,1.7,0,0,1,.894,9.106ZM11.131,7.4H12.84a1.706,1.706,0,1,1,0,3.412H11.131a1.706,1.706,0,1,1,0-3.412ZM6.015,5.688v-1.7a1.7,1.7,0,1,1,3.407,0v1.7a1.7,1.7,0,1,1-3.407,0Zm3.407,6.831v1.7a1.7,1.7,0,1,1-3.407,0v-1.7a1.7,1.7,0,1,1,3.407,0ZM8.009-10.369a1.723,1.723,0,0,1,0-2.424,1.744,1.744,0,0,1,2.407,0l1.212,1.212a1.7,1.7,0,0,1,0,2.407,1.715,1.715,0,0,1-1.2.514,1.7,1.7,0,0,1-1.212-.514Zm8.45,7.73a1.683,1.683,0,0,1-1.212-.491l-1.2-1.212a1.7,1.7,0,0,1,0-2.407,1.734,1.734,0,0,1,2.407,0l1.212,1.2a1.706,1.706,0,0,1,.491,1.212,1.706,1.706,0,0,1-.491,1.212A1.692,1.692,0,0,1,16.459-2.639ZM14.052-9.174a1.7,1.7,0,0,1-.514-1.2,1.713,1.713,0,0,1,.514-1.212l1.2-1.212a1.765,1.765,0,0,1,2.424,0,1.715,1.715,0,0,1,.491,1.212,1.706,1.706,0,0,1-.491,1.212l-1.212,1.2a1.723,1.723,0,0,1-1.212.514A1.7,1.7,0,0,1,14.052-9.174ZM8.009-3.131a1.723,1.723,0,0,1,0-2.424l1.212-1.2a1.734,1.734,0,0,1,2.407,0,1.7,1.7,0,0,1,0,2.407L10.416-3.131a1.626,1.626,0,0,1-1.2.491A1.683,1.683,0,0,1,8.009-3.131Zm52.9-.424a1.64,1.64,0,0,1-.5-1.2,1.71,1.71,0,0,1,.5-1.218,1.744,1.744,0,0,1,2.407,0L64.53-4.751a1.689,1.689,0,0,1,.508,1.2,1.7,1.7,0,0,1-.508,1.206,1.682,1.682,0,0,1-1.2.514,1.681,1.681,0,0,1-1.212-.514Zm6.043,6.037a1.7,1.7,0,0,1,0-2.4,1.723,1.723,0,0,1,2.407,0l1.212,1.206a1.626,1.626,0,0,1,.491,1.2,1.71,1.71,0,0,1-2.915,1.212Zm0-4.831a1.7,1.7,0,0,1,0-2.4l1.2-1.218a1.765,1.765,0,0,1,2.424,0,1.7,1.7,0,0,1,.491,1.218,1.7,1.7,0,0,1-.491,1.212l-1.212,1.19a1.691,1.691,0,0,1-1.212.514A1.672,1.672,0,0,1,66.954-2.349ZM60.911,3.694a1.723,1.723,0,0,1,0-2.424L62.123.08a1.723,1.723,0,0,1,2.407,0,1.676,1.676,0,0,1,.508,1.19,1.708,1.708,0,0,1-.508,1.212L63.318,3.694a1.622,1.622,0,0,1-1.2.5A1.7,1.7,0,0,1,60.911,3.694Zm9.953,10.528h1.7a1.709,1.709,0,0,1,0,3.418h-1.7a1.709,1.709,0,0,1,0-3.418Zm6.825,1.709a1.7,1.7,0,0,1,1.7-1.709H81.1a1.709,1.709,0,0,1,0,3.418H79.392A1.7,1.7,0,0,1,77.688,15.931Zm-3.412-3.412V10.809a1.706,1.706,0,0,1,3.412,0v1.709a1.706,1.706,0,0,1-3.412,0Zm3.412,6.825v1.7a1.706,1.706,0,1,1-3.412,0v-1.7a1.706,1.706,0,0,1,3.412,0ZM82.81,46.649A1.709,1.709,0,1,1,81.1,44.94,1.716,1.716,0,0,1,82.81,46.649ZM4.786,60.3l.855-3.412H9.874a7.652,7.652,0,0,0-.452,2.558,7.16,7.16,0,0,0,.056.855Zm12.321,3.418a4.3,4.3,0,1,1,3.4-1.709A4.263,4.263,0,0,1,17.107,63.717ZM24.736,60.3c.028-.279.045-.564.045-.855a7.511,7.511,0,0,0-.447-2.558h35.03a7.649,7.649,0,0,0-.447,2.558,7.166,7.166,0,0,0,.05.855ZM66.6,63.717a4.271,4.271,0,0,1-3.407-1.709,4.264,4.264,0,1,1,6.814,0A4.271,4.271,0,0,1,66.6,63.717Zm12.8-5.122a1.7,1.7,0,0,1-1.7,1.7H74.226c.028-.279.05-.564.05-.855a7.791,7.791,0,0,0-.447-2.558h5.563Zm-35.27-34.13c1.541,0,4.306,2.977,5.579,5.116H44.122c-2.122,0-3.977-1.2-3.977-2.558S42,24.465,44.122,24.465Zm15.929,0c2.122,0,3.982,1.2,3.982,2.558s-1.86,2.558-3.982,2.558H54.471C55.745,27.442,58.515,24.465,60.051,24.465ZM43.558,33h4.457l-2.273,6.825H27.412A21.607,21.607,0,0,1,43.558,33ZM61.67,33c2.854,0,5.669,3.893,7.3,6.825H49.338L51.612,33ZM81.1,51.765a1.716,1.716,0,0,0-1.709,1.709H71.411a7.643,7.643,0,0,0-9.634,0H45.742L48.3,43.236H68.5l-.961,2.871a1.716,1.716,0,0,0,1.084,2.161,1.636,1.636,0,0,0,.536.089,1.71,1.71,0,0,0,1.62-1.167l1.318-3.954H78.66a1.7,1.7,0,0,0,1.676-1.424,1.539,1.539,0,0,0,.028-.285,1.715,1.715,0,0,0-1.24-1.636l1.692-2.536a1.708,1.708,0,0,0-2.843-1.893l-2.9,4.362H72.818c-1.022-2.156-3.519-6.758-7.082-8.986a5.317,5.317,0,0,0,1.715-3.815c0-3.3-3.318-5.976-7.4-5.976-2.709,0-6,3-7.959,5.97-1.96-2.971-5.256-5.97-7.97-5.97-4.077,0-7.389,2.681-7.389,5.976a5.122,5.122,0,0,0,1.123,3.156,24.691,24.691,0,0,0-14.84,9.645H14.549a20.571,20.571,0,0,0-8.143,2.167C3.641,43.421,1.044,45.2.894,48.358v1.43a1.706,1.706,0,1,0,3.412,0V48.335c-.134-.508,1.145-2.133,3.6-3.273a17.659,17.659,0,0,1,6.585-1.826h5.825l2.943,5.881a1.7,1.7,0,1,0,3.049-1.525l-2.178-4.356H44.787L42.229,53.474H21.921a7.643,7.643,0,0,0-9.634,0H2.6a1.7,1.7,0,0,0-.458,3.345l-1.2,4.775A1.713,1.713,0,0,0,2.6,63.717h8.126a7.679,7.679,0,0,0,12.762,0H60.213a7.679,7.679,0,0,0,12.762,0h4.714A5.128,5.128,0,0,0,82.81,58.6V53.474A1.716,1.716,0,0,0,81.1,51.765Z" transform="translate(-0.888 14.787)"/></clipPath></defs><g class="b" transform="translate(0)"><path d="M-4.112-19.787H133.661V117.974H-4.112Z" transform="translate(-23.813 -8.138)"/></g></svg>