<svg xmlns="http://www.w3.org/2000/svg" width="25.609" height="25.589" viewBox="0 0 25.609 25.589"><defs><style>.a{fill:#fff;}</style></defs><g transform="translate(9.992 9.972)"><path class="a" d="M201.877,197.778a2.785,2.785,0,0,0-4.549,0,2.885,2.885,0,0,0-.528,1.645,2.8,2.8,0,0,0,5.605,0A2.885,2.885,0,0,0,201.877,197.778Z" transform="translate(-196.8 -196.6)"/></g><g transform="translate(6.295 11.169)"><path class="a" d="M134.54,220.2a3.993,3.993,0,0,1,.325,1.625,4.366,4.366,0,0,1-8.733,0,3.923,3.923,0,0,1,.325-1.625H124v6.519a1.649,1.649,0,0,0,1.6,1.6h9.789a1.649,1.649,0,0,0,1.6-1.6V220.2Z" transform="translate(-124 -220.2)"/></g><g transform="translate(16.207 6.641)"><path class="a" d="M321.556,131.02H319.2v2.7h2.681V131Z" transform="translate(-319.2 -131)"/></g><path class="a" d="M19.171.2H6.417A6.431,6.431,0,0,0,0,6.617V19.391a6.427,6.427,0,0,0,6.417,6.4H19.192a6.431,6.431,0,0,0,6.417-6.417V6.617A6.462,6.462,0,0,0,19.171.2Zm1.543,11.149h0v6.539a2.983,2.983,0,0,1-3.026,3.026H7.9a2.983,2.983,0,0,1-3.026-3.026V8.1A2.983,2.983,0,0,1,7.9,5.074h9.789A2.983,2.983,0,0,1,20.715,8.1v3.249Z" transform="translate(0 -0.2)"/></svg>