<svg xmlns="http://www.w3.org/2000/svg" width="21.975" height="35.16" viewBox="0 0 21.975 35.16"><defs><style>.a{fill:#434343;}</style></defs><path class="a" d="M159.487,21.975a1.1,1.1,0,0,0-1.1,1.1v4.395a1.1,1.1,0,0,0,2.2,0V23.074A1.1,1.1,0,0,0,159.487,21.975Zm8.79-4.375V8.79a8.79,8.79,0,0,0-17.58,0V17.6a10.987,10.987,0,1,0,17.58,0ZM152.895,8.79a6.592,6.592,0,1,1,13.185,0V15.4a10.926,10.926,0,0,0-13.185,0Zm6.592,24.172a8.79,8.79,0,0,1,0-17.58,9.01,9.01,0,0,1,8.79,8.79A8.79,8.79,0,0,1,159.487,32.962Z" transform="translate(-148.5)"/></svg>