<svg xmlns="http://www.w3.org/2000/svg" width="141.82" height="78.976" viewBox="0 0 141.82 78.976"><defs><style>.a{fill:#fff;}</style></defs><g transform="translate(-622 -7404)"><g transform="translate(622 7404)"><path class="a" d="M1024.462,168.756l-1.66-1.379-1.122,1.844-1.07-6.421,3.134,1.647Z" transform="translate(-909.739 -145.115)"/><path class="a" d="M967.8,159.62l-1.793,6.53-.927-1.947-1.792,1.2,1.1-3.986Z" transform="translate(-858.646 -142.28)"/><g transform="translate(0.039 59.886)"><path class="a" d="M530.686,1365.54v9.968h-2v-3.995H525.1v3.995H523.11v-9.968h2v3.989h3.585v-3.989Z" transform="translate(-523.11 -1365.293)"/><path class="a" d="M602.46,1368.995a5.185,5.185,0,1,1,5.175,5.163A5.185,5.185,0,0,1,602.46,1368.995Zm8.342-.013a3.16,3.16,0,1,0-3.167,3.15A3.16,3.16,0,0,0,610.8,1368.982Z" transform="translate(-593.84 -1363.751)"/><path class="a" d="M706.73,1371.823v-6.283h2.016v6.277a1.832,1.832,0,1,0,3.661,0v-6.277h2.015v6.283a3.847,3.847,0,1,1-7.692,0Z" transform="translate(-686.783 -1365.293)"/><path class="a" d="M785.56,1372.069l1.6-1.125a2.107,2.107,0,0,0,1.936,1.026c.94,0,1.571-.384,1.571-.916,0-.729-1.195-1.3-2.239-1.824-1.119-.556-2.35-1.169-2.35-2.758a3,3,0,0,1,3.29-2.862,2.88,2.88,0,0,1,2.933,1.768l-1.477,1.032a1.535,1.535,0,0,0-1.429-.834c-.748,0-1.3.435-1.3.946,0,.593.754.8,1.9,1.335,1.65.78,2.69,1.621,2.69,3.15,0,1.819-1.484,2.974-3.617,2.974A3.714,3.714,0,0,1,785.56,1372.069Z" transform="translate(-757.049 -1363.573)"/><path class="a" d="M862,1367.539v1.948h3.438v2H862v2.064h4.006v1.991H860v-9.968h6.011v1.973Z" transform="translate(-823.403 -1365.32)"/><path class="a" d="M954.32,1368.855a5.256,5.256,0,0,1,5.176-5.195,5.011,5.011,0,0,1,3.494,1.541l-1.156,1.576a3.409,3.409,0,0,0-2.356-1.075,3.158,3.158,0,0,0-.007,6.316,3.439,3.439,0,0,0,2.368-1.138l1.15,1.621a4.722,4.722,0,0,1-3.457,1.527A5.232,5.232,0,0,1,954.32,1368.855Z" transform="translate(-907.477 -1363.618)"/><path class="a" d="M1034.24,1368.995a5.185,5.185,0,1,1,5.175,5.163A5.185,5.185,0,0,1,1034.24,1368.995Zm8.342-.013a3.16,3.16,0,1,0-3.167,3.15,3.16,3.16,0,0,0,3.167-3.15Z" transform="translate(-978.715 -1363.751)"/><path class="a" d="M1149.074,1363.27v10.211h-2v-4.345l-2.87,4.175h-.012l-2.875-4.175v4.345h-2V1363.27h.109l4.78,6.585,4.767-6.585Z" transform="translate(-1072.371 -1363.27)"/><path class="a" d="M1242.78,1365.54h3.5a3.366,3.366,0,1,1,0,6.725h-1.5v3.24h-2Zm5,3.351a1.44,1.44,0,0,0-1.5-1.365h-1.5v2.757l1.5.006a1.45,1.45,0,0,0,1.508-1.4Z" transform="translate(-1164.601 -1365.293)"/><path class="a" d="M1317.3,1367.539v1.948h3.438v2H1317.3v2.064h4.007v1.991H1315.3v-9.968h6.011v1.973Z" transform="translate(-1229.243 -1365.32)"/><path class="a" d="M1383.173,1367.526h-2.45v7.982h-2.01v-7.982h-2.454v-1.986h6.913Z" transform="translate(-1283.58 -1365.293)"/><path class="a" d="M1447.92,1365.54h2v9.968h-2Z" transform="translate(-1347.456 -1365.293)"/><path class="a" d="M1481.309,1367.526h-2.449v7.982h-2.005v-7.982H1474.4v-1.986h6.909Z" transform="translate(-1371.059 -1365.293)"/><path class="a" d="M1546,1365.54h2v9.968h-2Z" transform="translate(-1434.881 -1365.293)"/><path class="a" d="M1574.11,1368.995a5.185,5.185,0,1,1,5.175,5.163A5.185,5.185,0,0,1,1574.11,1368.995Zm8.341-.013a3.16,3.16,0,1,0-3.166,3.15,3.16,3.16,0,0,0,3.166-3.15Z" transform="translate(-1459.938 -1363.751)"/><path class="a" d="M1687.244,1363.983v10.177h-.093l-5.917-5.757v5.584h-2V1363.82h.1l5.905,5.745v-5.584Z" transform="translate(-1553.638 -1363.76)"/><path class="a" d="M1761.76,1372.069l1.6-1.125a2.1,2.1,0,0,0,1.935,1.026c.94,0,1.571-.384,1.571-.916,0-.729-1.2-1.3-2.239-1.824-1.119-.556-2.35-1.169-2.35-2.758a3,3,0,0,1,3.29-2.862,2.879,2.879,0,0,1,2.933,1.768l-1.479,1.032a1.534,1.534,0,0,0-1.428-.834c-.748,0-1.3.435-1.3.946,0,.593.76.8,1.9,1.335,1.65.78,2.69,1.621,2.69,3.15,0,1.819-1.484,2.974-3.617,2.974A3.713,3.713,0,0,1,1761.76,1372.069Z" transform="translate(-1627.203 -1363.573)"/></g><path class="a" d="M525.013,1494.687h.573l.633,1.664.64-1.664h.573l-.828,2.081.821,1.974,1.616-4.082h.661l-2,4.78h-.525l-.951-2.256-.956,2.256h-.526l-1.993-4.78h.652l1.629,4.082.815-1.974Z" transform="translate(-522.75 -1420.501)"/><path class="a" d="M633.43,1499.47v-4.78h.605v4.78Z" transform="translate(-621.407 -1420.528)"/><path class="a" d="M691.086,1495.819v3.651h-.606v-4.78h.472l2.963,3.727V1494.7h.607v4.78h-.509Z" transform="translate(-672.259 -1420.528)"/><path class="a" d="M779.756,1495.819v3.651h-.606v-4.78h.471l2.965,3.727V1494.7h.606v4.78h-.513Z" transform="translate(-751.297 -1420.528)"/><path class="a" d="M867.82,1499.47v-4.78h.606v4.78Z" transform="translate(-830.334 -1420.528)"/><path class="a" d="M925.476,1495.819v3.651h-.606v-4.78h.472l2.964,3.727V1494.7h.606v4.78H928.4Z" transform="translate(-881.187 -1420.528)"/><path class="a" d="M1014.494,1498.518a1.935,1.935,0,0,1-1.455.68,1.914,1.914,0,0,1-.885-.208,2.312,2.312,0,0,1-.7-.55,2.614,2.614,0,0,1-.468-.778,2.431,2.431,0,0,1-.173-.9,2.55,2.55,0,0,1,.633-1.687,2.2,2.2,0,0,1,.707-.529,2.267,2.267,0,0,1,2.031.094,1.912,1.912,0,0,1,.683.76l-.464.326a1.453,1.453,0,0,0-.573-.619,1.6,1.6,0,0,0-.8-.2,1.379,1.379,0,0,0-.661.158,1.636,1.636,0,0,0-.505.418,1.92,1.92,0,0,0-.326.6,2.2,2.2,0,0,0-.109.7,2.026,2.026,0,0,0,.128.724,1.984,1.984,0,0,0,.35.6,1.629,1.629,0,0,0,.526.407,1.477,1.477,0,0,0,.659.149,1.819,1.819,0,0,0,1.412-.76v-.658h-1.03v-.458h1.543v2.39h-.513Z" transform="translate(-957.791 -1420.223)"/><path class="a" d="M1153.557,1495.163h-1.65v4.244h-.607v-4.244h-1.65v-.543h3.911Z" transform="translate(-1081.549 -1420.465)"/><path class="a" d="M1236.777,1494.66v4.78h-.606v-2.173h-2.634v2.173h-.606v-4.78h.606v2.064h2.634v-2.064Z" transform="translate(-1155.782 -1420.501)"/><path class="a" d="M1323.047,1498.967v.543H1319.8v-4.78h3.186v.543h-2.579v1.55h2.239v.505H1320.4v1.65Z" transform="translate(-1233.215 -1420.564)"/><path class="a" d="M1455,1499.465v-4.78h1.658a2.509,2.509,0,0,1,1.007.189,2.049,2.049,0,0,1,.724.512,2.121,2.121,0,0,1,.435.761,2.906,2.906,0,0,1,.146.925,2.866,2.866,0,0,1-.162.988,2.109,2.109,0,0,1-.465.754,2.078,2.078,0,0,1-.731.485,2.545,2.545,0,0,1-.953.172Zm3.355-2.4a2.391,2.391,0,0,0-.109-.744,1.593,1.593,0,0,0-.326-.582,1.525,1.525,0,0,0-.536-.38,1.78,1.78,0,0,0-.72-.139h-1.051v3.705h1.051a1.791,1.791,0,0,0,.731-.141,1.478,1.478,0,0,0,.532-.391,1.731,1.731,0,0,0,.326-.589,2.389,2.389,0,0,0,.105-.739Z" transform="translate(-1353.728 -1420.524)"/><path class="a" d="M1540.49,1499.469v-4.78h2.048a1.31,1.31,0,0,1,.583.131,1.46,1.46,0,0,1,.458.351,1.668,1.668,0,0,1,.3.491,1.5,1.5,0,0,1,.109.556,1.621,1.621,0,0,1-.071.481,1.464,1.464,0,0,1-.2.422,1.336,1.336,0,0,1-.316.326,1.252,1.252,0,0,1-.414.195l1.158,1.833h-.687l-1.086-1.718H1541.1v1.718Zm.606-2.256h1.449a.705.705,0,0,0,.34-.081.793.793,0,0,0,.259-.217,1.059,1.059,0,0,0,.168-.326,1.16,1.16,0,0,0,.061-.377,1.024,1.024,0,0,0-.071-.38,1.084,1.084,0,0,0-.189-.317.849.849,0,0,0-.276-.217.738.738,0,0,0-.333-.078h-1.412Z" transform="translate(-1429.931 -1420.527)"/><path class="a" d="M1625.837,1498.967v.543h-3.247v-4.78h3.186v.543h-2.58v1.55h2.243v.505H1623.2v1.65Z" transform="translate(-1503.112 -1420.564)"/><path class="a" d="M1696.75,1499.47l1.967-4.78h.5l1.955,4.78h-.652l-.566-1.4h-2.008l-.558,1.4Zm2.216-4.082-.889,2.21h1.751Z" transform="translate(-1569.216 -1420.528)"/><path class="a" d="M1788.445,1499.47v-3.693l-1.589,2.835h-.343l-1.6-2.835v3.693h-.606v-4.78h.64l1.731,3.106,1.738-3.106h.636v4.78Z" transform="translate(-1647.264 -1420.528)"/><path class="a" d="M532.354,1031.16l-9.334.02v32.063h9.334c10.37,0,16.7-6.05,16.7-16C549.053,1037.226,542.724,1031.142,532.354,1031.16Zm.04,25.654h-2.946v-19.262h2.886c6.35,0,10.211,3.662,10.211,9.668C542.544,1053.195,538.7,1056.813,532.394,1056.813Z" transform="translate(-522.991 -1007.352)"/><path class="a" d="M1046.878,1037.508h2.262a94.058,94.058,0,0,1,7.514-6.349H1040.43v15.672q3.067-3.744,6.448-7.131Z" transform="translate(-984.193 -1007.352)"/><path class="a" d="M1046.878,1153.739h11.066v-6.429H1052.7a130.786,130.786,0,0,0-12.266,10.914v8.55h19.344v-6.409h-12.9Z" transform="translate(-984.193 -1110.884)"/><path class="a" d="M1248.135,1023.83l-15.325,32.879h6.965l2.05-4.478h12.84l2.03,4.478h6.986l-15.345-32.879Zm-3.8,22.907,3.921-8.582,3.9,8.582Z" transform="translate(-1155.675 -1000.818)"/><path class="a" d="M1047.288,211.83l-15.345,21.2-15.365-21.2h-.357v32.879h6.448V230.736l9.254,13.435h.039l9.235-13.435v13.972h6.449V211.83Z" transform="translate(-905.826 -188.818)"/><path class="a" d="M865.979,916.679l.789-4.594-3.113-3.035c-.027.011-.055.02-.083.029a97.506,97.506,0,0,0-25.24,13.236,92.682,92.682,0,0,0-7.719,6.349q-1.9,1.746-3.724,3.611-3.132,3.2-6.019,6.769c-.144.178-.288.355-.435.534-1.548,1.948-3,3.973-4.419,6.027q-1.013,1.469-2.008,2.948l-4.94-6.912A9.4,9.4,0,0,0,815,932.7a10.656,10.656,0,0,0-10.907-10.388H793.63l.02,32.082H800.1V939.231L810.31,954.4h7.881l-3.121-4.365q.741-.812,1.493-1.612l3.877-3.984a131.9,131.9,0,0,1,10.654-9.5q1.086-.869,2.2-1.709,3.158-2.4,6.409-4.563h.082v-.054a85.622,85.622,0,0,1,26.18-11.928Zm-61.761,20.1-4.14-.02v-8.057h4.14a4.04,4.04,0,1,1,0,8.077Z" transform="translate(-764.204 -898.507)"/><path class="a" d="M926.346,13.131l1.276,7.445-2.366-1.244-3.134-1.647-1.185-.624-.529.278h0l-3.417,1.8-2.739,1.439.167-.98.21-1.22.9-5.245-3.634-3.544-.915-.892-.859-.836,7.474-1.086L920.937,0l3.343,6.773,7.475,1.086Z" transform="translate(-811.252)"/></g></g></svg>