<svg xmlns="http://www.w3.org/2000/svg" xmlns:xlink="http://www.w3.org/1999/xlink" width="137.603" height="21.497" viewBox="0 0 137.603 21.497"><defs><style>.a{fill:none;}.b{clip-path:url(#a);}.c{fill:#ff8900;}</style><clipPath id="a"><rect class="a" width="137.603" height="21.497"/></clipPath></defs><g class="b"><g transform="translate(-483.525 -6181.5)"><path class="c" d="M12.241,0l2.668,8.211h8.634l-6.985,5.075L19.226,21.5l-6.985-5.075L5.257,21.5l2.668-8.211L.94,8.211H9.574Z" transform="translate(482.586 6181.5)"/></g><g transform="translate(-455.525 -6181.5)"><path class="c" d="M12.241,0l2.668,8.211h8.634l-6.985,5.075L19.226,21.5l-6.985-5.075L5.257,21.5l2.668-8.211L.94,8.211H9.574Z" transform="translate(482.586 6181.5)"/></g><g transform="translate(-427.525 -6181.5)"><path class="c" d="M12.241,0l2.668,8.211h8.634l-6.985,5.075L19.226,21.5l-6.985-5.075L5.257,21.5l2.668-8.211L.94,8.211H9.574Z" transform="translate(482.586 6181.5)"/></g><g transform="translate(-399.525 -6181.5)"><path class="c" d="M12.241,0l2.668,8.211h8.634l-6.985,5.075L19.226,21.5l-6.985-5.075L5.257,21.5l2.668-8.211L.94,8.211H9.574Z" transform="translate(482.586 6181.5)"/></g><g transform="translate(-371.525 -6181.5)"><path class="c" d="M12.241,0l2.668,8.211h8.634l-6.985,5.075L19.226,21.5l-6.985-5.075L5.257,21.5l2.668-8.211L.94,8.211H9.574Z" transform="translate(482.586 6181.5)"/></g></g></svg>