<svg xmlns="http://www.w3.org/2000/svg" width="98" height="121.359" viewBox="0 0 98 121.359"><defs><style>.a{fill:#fff;stroke:rgba(0,0,0,0);stroke-miterlimit:10;}.b{fill:none;opacity:0.996;}.c,.d{stroke:none;}.d{fill:#cc2a2a;}</style></defs><g transform="translate(-259 -196.641)"><path class="a" d="M21587.607,19484l3.779-7.443a20.42,20.42,0,0,0,12,3.783c4.857,0,7.855-1.982,7.855-5.4,0-3.182-2.34-5.162-7.855-5.162h-4.441v-6.418l8.637-9.777h-17.877v-7.8h29.4v6.3l-9.48,10.8c7.559,1.205,11.4,5.885,11.4,12.063,0,7.08-5.461,13.563-17.4,13.563C21597.748,19488.5,21591.689,19486.879,21587.607,19484Zm10.689-54.525a6.791,6.791,0,1,1,6.787,6.482A6.449,6.449,0,0,1,21598.3,19429.477Zm2.357,0a4.427,4.427,0,1,0,4.43-4.426A4.293,4.293,0,0,0,21600.654,19429.477Zm21.617,6.3v-12.6h5.186c3.313,0,5.363,1.7,5.363,4.486,0,2.768-2.051,4.479-5.363,4.479h-2.844v3.637Zm2.342-5.613h2.734c2.053,0,3.111-.918,3.111-2.5s-1.059-2.5-3.111-2.5h-2.734Zm-41.436,5.613v-10.619H21579v-1.982h10.689v1.982h-4.174v10.619Z" transform="translate(-21297.928 -19208.779)"/><g transform="translate(259 196.641)"><g class="b" transform="translate(0 4.359)"><path class="c" d="M0-4.359H98V117L49.564,96.375,0,117Z"/><path class="d" d="M 4 -0.3593902587890625 L 4 111.0029907226562 L 48.0276985168457 92.68197631835938 L 49.58234024047852 92.03504943847656 L 51.1315803527832 92.69474792480469 L 94 110.9491424560547 L 94 -0.3593902587890625 L 4 -0.3593902587890625 M 0 -4.359390258789062 L 98 -4.359390258789062 L 98 116.9999923706055 L 49.56446075439453 96.37499237060547 L 0 116.9999923706055 L 0 -4.359390258789062 Z"/></g></g></g></svg>