<svg xmlns="http://www.w3.org/2000/svg" width="33.832" height="33.82" viewBox="0 0 33.832 33.82"><defs><style>.a{fill:#434343;}</style></defs><g transform="translate(0 0)"><path class="a" d="M28.546,27.584H24.317a1.057,1.057,0,1,0,0,2.115h4.229a1.057,1.057,0,0,0,0-2.115Zm-9.515-14.8H6.344A2.115,2.115,0,0,0,4.229,14.9V27.584A2.115,2.115,0,0,0,6.344,29.7H19.031a2.114,2.114,0,0,0,2.115-2.115V14.9A2.115,2.115,0,0,0,19.031,12.782Zm0,13.744a1.058,1.058,0,0,1-1.057,1.057H7.4a1.058,1.058,0,0,1-1.057-1.057V15.954A1.058,1.058,0,0,1,7.4,14.9H17.973a1.058,1.058,0,0,1,1.057,1.057Zm9.515-2.115H24.317a1.057,1.057,0,0,0,0,2.115h4.229a1.057,1.057,0,0,0,0-2.115ZM29.6,8.553H19.819l9.274-6.381A1.166,1.166,0,0,0,29.406.619,1.021,1.021,0,0,0,27.944.287S17.784,7.3,16.926,7.82L5.888.287A1.02,1.02,0,0,0,4.427.619,1.166,1.166,0,0,0,4.74,2.173l9.274,6.381H4.229A4.229,4.229,0,0,0,0,12.782V29.7a4.229,4.229,0,0,0,4.229,4.229H29.6A4.229,4.229,0,0,0,33.832,29.7V12.782A4.229,4.229,0,0,0,29.6,8.553ZM31.718,29.7A2.114,2.114,0,0,1,29.6,31.813H4.229A2.114,2.114,0,0,1,2.115,29.7V12.782a2.115,2.115,0,0,1,2.115-2.115H29.6a2.115,2.115,0,0,1,2.115,2.115ZM26.431,12.782A3.172,3.172,0,1,0,29.6,15.954,3.172,3.172,0,0,0,26.431,12.782Zm1.057,4.229H25.374V14.9h2.115Z" transform="translate(0 -0.107)"/></g></svg>