<svg xmlns="http://www.w3.org/2000/svg" width="25.609" height="25.589" viewBox="0 0 25.609 25.589"><defs><style>.a{fill:#fff;}</style></defs><path class="a" d="M19.171.2H6.417A6.431,6.431,0,0,0,0,6.617V19.391a6.427,6.427,0,0,0,6.417,6.4H19.192a6.431,6.431,0,0,0,6.417-6.417V6.617A6.462,6.462,0,0,0,19.171.2Zm-.02,9.586v.426a9.179,9.179,0,0,1-9.322,9.179A9.35,9.35,0,0,1,4.813,17.95c.264.02.508.041.772.041a6.542,6.542,0,0,0,4.062-1.381A3.272,3.272,0,0,1,6.58,14.375a3.1,3.1,0,0,0,.609.061,3.025,3.025,0,0,0,.873-.122,3.246,3.246,0,0,1-2.579-3.168v-.041a3.141,3.141,0,0,0,1.462.406A3.185,3.185,0,0,1,5.93,7.206a9.382,9.382,0,0,0,6.742,3.371,2.99,2.99,0,0,1-.081-.731,3.246,3.246,0,0,1,3.27-3.229,3.328,3.328,0,0,1,2.4,1.015,6.1,6.1,0,0,0,2.071-.792,3.306,3.306,0,0,1-1.442,1.787,6.489,6.489,0,0,0,1.889-.508A6.669,6.669,0,0,1,19.151,9.786Z" transform="translate(0 -0.2)"/></svg>