<svg xmlns="http://www.w3.org/2000/svg" width="32.018" height="32" viewBox="0 0 32.018 32"><defs><style>.a{fill:#434343;}</style></defs><path class="a" d="M16.009,5.172a7,7,0,1,0,7,7A7,7,0,0,0,16.009,5.172Zm0,12a5,5,0,1,1,5-5A5,5,0,0,1,16.009,17.172Zm11.021.435A11.9,11.9,0,0,0,28.3,12.278,12.2,12.2,0,0,0,16.009.172,12.2,12.2,0,0,0,3.721,12.278a11.9,11.9,0,0,0,1.267,5.329L0,26.118s3.163.634,6.372,1.3c2.14,2.382,4.27,4.759,4.27,4.759l4.586-7.826c.26.016.517.039.781.039s.522-.023.781-.039l4.586,7.826s2.13-2.376,4.269-4.758c3.209-.661,6.373-1.3,6.373-1.3ZM10.4,28.542s-1.536-1.456-2.98-2.86c-2.048-.583-4.115-1.176-4.115-1.176l2.9-4.947a12.289,12.289,0,0,0,6.847,4.458Zm5.6-6.362A10.011,10.011,0,1,1,26,12.169,10,10,0,0,1,16.009,22.18Zm8.584,3.5c-1.444,1.4-2.98,2.86-2.98,2.86l-2.651-4.524a12.288,12.288,0,0,0,6.847-4.458l2.9,4.947S26.641,25.1,24.593,25.682Z" transform="translate(0 -0.172)"/></svg>