<svg xmlns="http://www.w3.org/2000/svg" width="25.589" height="25.589" viewBox="0 0 25.589 25.589"><defs><style>.a{fill:#fff;}</style></defs><g transform="translate(11.148 10.276)"><path class="a" d="M219.6,202.4v4.671l4.305-2.315Z" transform="translate(-219.6 -202.4)"/></g><path class="a" d="M19.171,0H6.4A6.427,6.427,0,0,0,0,6.417V19.191a6.423,6.423,0,0,0,6.4,6.4H19.171a6.431,6.431,0,0,0,6.417-6.417V6.417A6.431,6.431,0,0,0,19.171,0Zm1.543,13.424c0,1.34-.122,2.7-.122,2.7a3.685,3.685,0,0,1-.609,1.645,2.208,2.208,0,0,1-1.584.711c-2.234.162-5.585.183-5.585.183s-4.163-.061-5.443-.183a2.594,2.594,0,0,1-1.767-.711A3.437,3.437,0,0,1,5,16.125s-.122-1.361-.122-2.7V12.165c0-1.34.122-2.7.122-2.7a3.685,3.685,0,0,1,.609-1.645,2.254,2.254,0,0,1,1.584-.731c2.254-.162,5.605-.183,5.605-.183s3.351.02,5.585.183a2.337,2.337,0,0,1,1.6.711,3.487,3.487,0,0,1,.609,1.665s.122,1.361.122,2.7Z"/></svg>